HIERARCHY
ROOT Beta:Hips
{
	OFFSET 0.00 0.00 0.00
	CHANNELS 6 Xposition Yposition Zposition Yrotation Xrotation Zrotation
	JOINT Beta:Spine
	{
		OFFSET	0.0000	9.2263	1.5771
		CHANNELS 3 Xrotation Yrotation Zrotation
		JOINT Beta:Spine1
		{
			OFFSET	0.0000	16.2540	-0.1656
			CHANNELS 3 Xrotation Yrotation Zrotation
			JOINT Beta:Spine2
			{
				OFFSET	0.0000	13.6396	-1.2923
				CHANNELS 3 Xrotation Yrotation Zrotation
				JOINT Beta:Neck
				{
					OFFSET	0.0000	13.8774	-4.3542
					CHANNELS 3 Xrotation Yrotation Zrotation
					JOINT Beta:Neck1
					{
						OFFSET	0.0000	4.3400	0.9269
						CHANNELS 3 Xrotation Yrotation Zrotation
						JOINT Beta:Head
						{
							OFFSET	0.0000	4.0266	0.8585
							CHANNELS 3 Xrotation Yrotation Zrotation
							End Site
							{
								OFFSET 0.0000 23.0297 0.1231
							}
						}
					}
				}
				JOINT Beta:LeftShoulder
				{
					OFFSET	6.1442	10.1870	-3.7932
					CHANNELS 3 Zrotation Xrotation Yrotation
					JOINT Beta:LeftArm
					{
						OFFSET	12.3191	-1.1130	-1.7935
						CHANNELS 3 Zrotation Xrotation Yrotation
						JOINT Beta:LeftForeArm
						{
							OFFSET	27.6870	0.0000	0.0000
							CHANNELS 3 Xrotation Zrotation Yrotation
							JOINT Beta:LeftHand
							{
								OFFSET	27.8738	0.0000	0.0000
								CHANNELS 3 Zrotation Yrotation Xrotation
								JOINT Beta:LeftHandThumb1
								{
									OFFSET	2.3785	-1.0029	2.6209
									CHANNELS 3 Zrotation Xrotation Yrotation
									JOINT Beta:LeftHandThumb2
									{
										OFFSET	3.3624	-1.0029	2.8398
										CHANNELS 3 Zrotation Xrotation Yrotation
										JOINT Beta:LeftHandThumb3
										{
											OFFSET	4.5018	-1.3445	2.1783
											CHANNELS 3 Zrotation Xrotation Yrotation
											End Site
											{
												OFFSET 2.6000 -1.0000 1.0000
											}
										}
									}
								}
								JOINT Beta:LeftHandMiddle1
								{
									OFFSET	10.4639	0.6148	0.4298
									CHANNELS 3 Zrotation Xrotation Yrotation
									JOINT Beta:LeftHandMiddle2
									{
										OFFSET	5.7921	0.0000	0.0000
										CHANNELS 3 Zrotation Xrotation Yrotation
										JOINT Beta:LeftHandMiddle3
										{
											OFFSET	3.7132	0.0000	0.0000
											CHANNELS 3 Zrotation Xrotation Yrotation
											End Site
											{
												OFFSET 2.3000 0.0000 0.0000
											}
										}
									}
								}
								JOINT Beta:LeftHandIndex1
								{
									OFFSET	10.3945	0.6148	2.7055
									CHANNELS 3 Zrotation Xrotation Yrotation
									JOINT Beta:LeftHandIndex2
									{
										OFFSET	5.5493	0.0000	0.0000
										CHANNELS 3 Zrotation Xrotation Yrotation
										JOINT Beta:LeftHandIndex3
										{
											OFFSET	3.3911	0.0000	0.0000
											CHANNELS 3 Zrotation Xrotation Yrotation
											End Site
											{
												OFFSET 2.5000 0.0000 0.0000
											}
										}
									}
								}
								JOINT Beta:LeftHandRing1
								{
									OFFSET	10.3252	0.3211	-1.8755
									CHANNELS 3 Zrotation Xrotation Yrotation
									JOINT Beta:LeftHandRing2
									{
										OFFSET	5.4452	0.0000	0.0000
										CHANNELS 3 Zrotation Xrotation Yrotation
										JOINT Beta:LeftHandRing3
										{
											OFFSET	3.7132	0.0000	0.0000
											CHANNELS 3 Zrotation Xrotation Yrotation
											End Site
											{
												OFFSET 2.0000 0.0000 0.0000
											}
										}
									}
								}
								JOINT Beta:LeftHandPinky1
								{
									OFFSET	10.0130	-0.0783	-3.9671
									CHANNELS 3 Zrotation Xrotation Yrotation
									JOINT Beta:LeftHandPinky2
									{
										OFFSET	3.6763	0.0000	0.0000
										CHANNELS 3 Zrotation Xrotation Yrotation
										JOINT Beta:LeftHandPinky3
										{
											OFFSET	2.8113	0.0000	0.0000
											CHANNELS 3 Zrotation Xrotation Yrotation
											End Site
											{
												OFFSET 2.9000 0.0000 0.0000
											}
										}
									}
								}
							}
						}
					}
				}
				JOINT Beta:RightShoulder
				{
					OFFSET	-6.1402	10.1870	-3.7932
					CHANNELS 3 Zrotation Xrotation Yrotation
					JOINT Beta:RightArm
					{
						OFFSET	-12.3231	-1.1130	-1.7935
						CHANNELS 3 Zrotation Xrotation Yrotation
						JOINT Beta:RightForeArm
						{
							OFFSET	-27.6870	0.0000	0.0000
							CHANNELS 3 Xrotation Zrotation Yrotation
							JOINT Beta:RightHand
							{
								OFFSET	-27.8738	0.0000	0.0000
								CHANNELS 3 Zrotation Yrotation Xrotation
								JOINT Beta:RightHandThumb1
								{
									OFFSET	-2.5178	-0.9367	2.5137
									CHANNELS 3 Zrotation Xrotation Yrotation
									JOINT Beta:RightHandThumb2
									{
										OFFSET	-3.2638	-1.0870	2.9669
										CHANNELS 3 Zrotation Xrotation Yrotation
										JOINT Beta:RightHandThumb3
										{
											OFFSET	-4.4165	-1.3703	2.1350
											CHANNELS 3 Zrotation Xrotation Yrotation
											End Site
											{
												OFFSET -2.6000 -1.0000 1.0000
											}
										}
									}
								}
								JOINT Beta:RightHandIndex1
								{
									OFFSET	-10.4665	0.4896	2.7120
									CHANNELS 3 Zrotation Xrotation Yrotation
									JOINT Beta:RightHandIndex2
									{
										OFFSET	-5.3768	0.0000	0.0000
										CHANNELS 3 Zrotation Xrotation Yrotation
										JOINT Beta:RightHandIndex3
										{
											OFFSET	-3.3855	0.0000	0.0000
											CHANNELS 3 Zrotation Xrotation Yrotation
											End Site
											{
												OFFSET -2.6000 0.0000 0.0000
											}
										}
									}
								}
								JOINT Beta:RightHandMiddle1
								{
									OFFSET	-10.7596	0.4896	0.4278
									CHANNELS 3 Zrotation Xrotation Yrotation
									JOINT Beta:RightHandMiddle2
									{
										OFFSET	-5.6168	0.0000	0.0000
										CHANNELS 3 Zrotation Xrotation Yrotation
										JOINT Beta:RightHandMiddle3
										{
											OFFSET	-3.7364	0.0000	0.0000
											CHANNELS 3 Zrotation Xrotation Yrotation
											End Site
											{
												OFFSET -2.3000 0.0000 0.0000
											}
										}
									}
								}
								JOINT Beta:RightHandRing1
								{
									OFFSET	-10.4702	0.3879	-1.9363
									CHANNELS 3 Zrotation Xrotation Yrotation
									JOINT Beta:RightHandRing2
									{
										OFFSET	-5.4013	0.0000	0.0000
										CHANNELS 3 Zrotation Xrotation Yrotation
										JOINT Beta:RightHandRing3
										{
											OFFSET	-3.3916	0.0000	0.0000
											CHANNELS 3 Zrotation Xrotation Yrotation
											End Site
											{
												OFFSET -2.2000 0.0000 0.0000
											}
										}
									}
								}
								JOINT Beta:RightHandPinky1
								{
									OFFSET	-9.9715	-0.1191	-3.9540
									CHANNELS 3 Zrotation Xrotation Yrotation
									JOINT Beta:RightHandPinky2
									{
										OFFSET	-3.6528	0.0000	0.0000
										CHANNELS 3 Zrotation Xrotation Yrotation
										JOINT Beta:RightHandPinky3
										{
											OFFSET	-2.7820	0.0000	0.0000
											CHANNELS 3 Zrotation Xrotation Yrotation
											End Site
											{
												OFFSET -2.9000 0.0000 0.0000
											}
										}
									}
								}
							}
						}
					}
				}
			}
		}
	}
	JOINT Beta:LeftUpLeg
	{
		OFFSET	9.6338	-3.2733	0.0000
		CHANNELS 3 Xrotation Yrotation Zrotation
		JOINT Beta:LeftLeg
		{
			OFFSET	0.0000	-41.7300	-1.7300
			CHANNELS 3 Xrotation Yrotation Zrotation
			JOINT Beta:LeftFoot
			{
				OFFSET	0.0126	-39.1900	-0.8477
				CHANNELS 3 Xrotation Yrotation Zrotation
				JOINT Beta:LeftToeBase
				{
					OFFSET	-0.1833	-12.1931	8.2823
					CHANNELS 3 Xrotation Yrotation Zrotation
					End Site
					{
						OFFSET 0.0000 0.0000 10.1681
					}
				}
			}
		}
	}
	JOINT Beta:RightUpLeg
	{
		OFFSET	-9.6338	-3.2733	0.0000
		CHANNELS 3 Xrotation Yrotation Zrotation
		JOINT Beta:RightLeg
		{
			OFFSET	0.0000	-41.7300	-1.7300
			CHANNELS 3 Xrotation Yrotation Zrotation
			JOINT Beta:RightFoot
			{
				OFFSET	0.0126	-39.1900	-0.8477
				CHANNELS 3 Xrotation Yrotation Zrotation
				JOINT Beta:RightToeBase
				{
					OFFSET	-0.1833	-12.1931	8.2823
					CHANNELS 3 Xrotation Yrotation Zrotation
					End Site
					{
						OFFSET 0.0032 0.0000 10.1681
					}
				}
			}
		}
	}
}
MOTION
Frames: 8
Frame Time: 0.0333333
79.9477 93.2077 171.4693 67.7200 -4.2252 -8.2624 16.5800 -3.5616 0.4524 -3.8094 -3.9641 1.7188 -3.6916 -3.6464 2.2107 12.0788 -12.8857 -0.0932 -0.0000 0.0000 -0.0000 -7.5389 -13.6636 1.5222 -6.8718 2.3415 3.3075 -60.0631 21.6760 -18.6338 5.5064 -0.2750 -21.9439 22.5113 -1.9902 -10.0336 -1.3386 4.5258 15.5499 -2.3179 1.4264 -1.0844 8.1476 -1.8617 5.1796 -3.0960 -2.3463 3.2363 -19.1895 0.2297 -1.2717 -3.9103 0.0277 -0.3884 2.1378 2.3481 2.1324 -11.0352 0.0642 -0.8826 -6.9002 0.0502 -0.5338 -0.5728 -5.3954 7.7955 -24.9729 0.3876 -2.1841 -7.6206 0.0977 -0.0628 -13.0285 -8.5418 5.8935 -26.2213 0.5649 -2.3350 -6.9154 0.0407 -0.5497 -0.2889 3.2713 0.2038 73.9414 25.3627 -6.6864 18.6517 3.1904 24.3166 -7.6959 -5.3883 -18.0349 3.9048 4.1113 -28.2233 -0.0534 -1.1692 3.5190 -3.4445 -2.9901 3.6044 23.9058 2.8595 3.8273 22.7067 0.2958 1.7507 22.2754 0.3363 1.7359 24.4640 1.5612 4.3568 23.2979 0.3641 1.8085 22.2414 0.3403 1.7721 26.4060 1.1933 5.2195 25.0592 0.4218 1.9587 23.8521 0.3869 1.8387 29.2379 0.8773 6.5028 26.5674 0.4805 2.0723 25.2035 0.4634 1.9762 -8.1525 6.8716 -3.1266 31.3235 -3.5961 0.5164 -17.0032 -2.2711 15.5795 0.1295 10.4976 -2.3215 -26.9431 -3.8453 -1.6055 45.6925 1.1718 2.6279 -5.1329 3.0552 4.8303 0.0380 -2.8394 -4.0255 
82.7181 92.9451 172.7175 70.6740 -3.8765 -7.7901 16.3140 -3.8654 -0.9004 -3.5313 -4.3110 2.5288 -3.3458 -3.8985 3.0413 11.6643 -13.4925 -0.3849 -0.0000 0.0000 -0.0000 -7.9202 -14.4625 1.9338 -7.5629 2.3889 2.7796 -57.4878 23.4366 -21.8071 5.5629 0.7619 -22.8532 24.0912 -2.0905 -12.0027 -1.4827 4.6896 15.3544 -2.3065 1.4619 -0.9439 8.1468 -1.8641 5.1827 -1.8918 -2.5105 3.7352 -18.6297 0.2168 -1.2127 -2.7605 0.0206 -0.2696 3.4243 2.3046 2.5640 -10.2180 0.0518 -0.7977 -5.9262 0.0406 -0.4339 0.8844 -5.6231 8.5447 -24.5520 0.3707 -2.1425 -6.5266 0.0909 0.0524 -11.8791 -8.8765 6.6245 -25.7594 0.5466 -2.2905 -5.7081 0.0291 -0.4246 -0.8949 3.2447 0.2272 73.8022 22.2635 -6.3966 20.1302 4.2891 23.7159 -8.7917 -4.7032 -15.7938 4.0299 4.0127 -28.7980 -0.2116 -1.3069 3.5463 -3.2172 -3.0287 4.0877 24.6544 2.9045 4.0905 22.8515 0.3018 1.7717 22.5887 0.3468 1.7663 24.9791 1.7566 4.6468 23.0973 0.3648 1.8262 22.6862 0.3533 1.8066 27.0753 1.5367 5.6907 24.6649 0.4169 1.9439 24.1901 0.4008 1.8997 29.4495 1.3054 6.9198 26.1858 0.4702 2.0566 25.6351 0.4779 2.0137 -6.1326 6.8045 -3.2265 31.6187 -6.4392 0.4249 -18.7142 -2.2229 15.5826 -0.2398 10.0680 -1.6476 -27.7965 -3.4406 -1.4356 35.1894 6.9826 2.2686 -5.0797 2.5379 6.2883 -0.9633 -5.0933 -5.7646 
85.7019 92.5894 173.9224 72.9590 -4.2154 -7.2718 16.4904 -3.9106 -1.7788 -3.0814 -4.2861 2.8018 -2.8720 -3.8330 3.2981 10.8491 -14.1909 -0.2152 -0.0000 0.0000 -0.0000 -7.6273 -15.2307 2.3767 -7.5210 2.4016 2.5356 -55.6473 24.0446 -25.2164 6.0286 1.4209 -23.3088 25.2403 -2.4319 -12.9397 -1.5676 4.7869 15.2383 -2.2995 1.4830 -0.8606 8.1461 -1.8660 5.1849 -1.0299 -2.5962 3.9956 -18.1490 0.2065 -1.1650 -1.9307 0.0172 -0.1853 4.3581 2.2803 2.7624 -9.5742 0.0427 -0.7310 -5.1894 0.0345 -0.3586 1.8751 -5.7364 8.9642 -24.1649 0.3560 -2.1051 -5.7411 0.0876 0.1344 -11.0843 -9.0476 7.0432 -25.3577 0.5307 -2.2520 -4.8652 0.0229 -0.3397 -0.3330 3.2613 0.4970 72.7133 18.9452 -5.4596 22.7263 5.5860 22.5169 -9.7633 -3.8180 -13.3039 4.0743 3.9766 -29.0051 -0.2681 -1.3574 3.5557 -3.1353 -3.0420 4.2620 24.8499 2.9238 4.2368 22.8579 0.3022 1.7773 22.6563 0.3482 1.7742 25.1024 1.8281 4.7712 22.9862 0.3634 1.8307 22.8066 0.3559 1.8176 27.2520 1.6517 5.8508 24.4817 0.4150 1.9360 24.2694 0.4040 1.9193 29.4756 1.4405 7.0243 26.0134 0.4653 2.0497 25.7533 0.4812 2.0253 -3.2444 7.5573 -3.0860 31.7352 -9.8227 0.3139 -20.2810 -2.0749 16.0386 -0.7702 9.8816 -1.1815 -27.0959 -2.8988 0.5113 25.2554 12.4059 -0.6253 -8.6347 1.5007 9.3021 0.5466 -4.5463 -6.3657 
88.7034 92.1435 174.9951 75.3786 -4.4079 -6.5307 16.7017 -4.1200 -2.8844 -2.8213 -4.4212 3.2063 -2.5664 -3.9050 3.7113 10.1797 -14.4172 -0.6269 -0.0000 0.0000 -0.0000 -7.3991 -15.6098 2.7164 -7.9898 2.3942 2.7572 -54.5723 23.7320 -27.7977 5.9799 1.6218 -23.5412 25.7144 -3.5230 -12.2531 -1.6004 4.8244 15.1930 -2.2969 1.4911 -0.8282 8.1458 -1.8672 5.1862 -0.5165 -2.6198 4.0411 -17.7823 0.1988 -1.1284 -1.4288 0.0158 -0.1350 4.9333 2.2672 2.7566 -9.1289 0.0367 -0.6850 -4.7082 0.0311 -0.3096 2.4087 -5.7616 9.0825 -23.8497 0.3444 -2.0745 -5.2721 0.0863 0.1821 -10.6482 -9.0869 7.1729 -25.0504 0.5184 -2.2226 -4.3877 0.0200 -0.2919 -0.2176 3.2659 0.8209 72.3736 16.3883 -5.5585 24.3832 5.4176 22.6309 -9.1246 -3.8854 -10.5252 4.0753 3.9764 -29.0056 -0.2656 -1.3610 3.5598 -3.1350 -3.0429 4.2620 24.7383 2.9294 4.3241 22.7878 0.2997 1.7746 22.5874 0.3456 1.7717 25.0106 1.8318 4.8074 22.9266 0.3615 1.8298 22.7484 0.3526 1.8155 27.1621 1.6384 5.8408 24.4197 0.4151 1.9333 24.2083 0.3994 1.9193 29.4057 1.4149 6.9587 25.9608 0.4638 2.0486 25.7008 0.4785 2.0243 -0.6668 7.7527 -3.1996 31.9900 -12.7886 0.2156 -21.4925 -1.8175 16.2423 -1.6838 9.6136 -0.4721 -28.0509 -2.0669 1.5638 20.2203 17.2140 -2.6970 -12.9248 -0.9812 13.7440 -0.0473 -5.4728 -4.7362 
91.8066 91.7049 175.9412 77.6801 -4.3295 -5.6451 16.3973 -4.4125 -3.5651 -2.5014 -4.4389 2.9762 -2.2309 -3.9559 3.4654 9.7571 -14.4779 -0.0884 -0.0000 0.0000 -0.0000 -7.4886 -15.4571 2.3960 -7.3377 2.3946 2.6461 -54.6068 23.0839 -29.1492 5.8521 1.8254 -23.8559 25.7494 -4.0602 -11.3256 -1.5876 4.8093 15.2095 -2.2979 1.4878 -0.8404 8.1456 -1.8675 5.1866 -0.3566 -2.5946 3.8966 -17.5637 0.1943 -1.1066 -1.2631 0.0156 -0.1185 5.1436 2.2636 2.5762 -8.9076 0.0338 -0.6625 -4.5008 0.0299 -0.2886 2.4963 -5.7202 8.9313 -23.6447 0.3369 -2.0545 -5.1277 0.0865 0.1968 -10.5711 -9.0213 7.0404 -24.8715 0.5111 -2.2055 -4.2764 0.0196 -0.2809 0.5028 3.2850 0.2893 71.7358 15.6114 -4.6934 26.8315 5.7635 22.2125 -9.0212 -3.4130 -9.4990 4.0745 3.9753 -29.0053 -0.2632 -1.3640 3.5603 -3.1343 -3.0450 4.2615 24.6274 2.9384 4.4246 22.7193 0.2975 1.7713 22.5201 0.3436 1.7689 24.9233 1.8380 4.8520 22.8705 0.3598 1.8285 22.6938 0.3498 1.8130 27.0831 1.6315 5.8326 24.3656 0.4151 1.9309 24.1551 0.3954 1.9192 29.3459 1.3927 6.9016 25.9158 0.4624 2.0475 25.6558 0.4760 2.0235 1.9063 7.5834 -3.5161 31.5944 -15.1527 0.1331 -22.1819 -1.7762 16.3425 -2.7588 9.4256 0.1678 -30.6220 -0.9763 1.7885 19.5972 18.0776 -2.9930 -15.9938 -2.1902 12.9982 -0.0023 -4.7261 -3.9640 
95.0710 91.2198 176.7813 80.1079 -4.3231 -4.9503 16.8499 -4.6798 -4.0685 -2.7282 -4.6193 3.0816 -2.4220 -4.1170 3.6093 9.7044 -13.9524 -0.4672 -0.0000 0.0000 -0.0000 -7.6313 -14.9260 2.1107 -7.8595 2.3777 2.9644 -54.2691 23.1583 -29.5623 5.9215 1.8350 -23.8269 25.7075 -3.6490 -11.2367 -1.5358 4.7491 15.2789 -2.3023 1.4748 -0.8909 8.1459 -1.8668 5.1859 -0.4806 -2.5253 3.5999 -17.4495 0.1918 -1.0954 -1.3632 0.0162 -0.1287 5.0560 2.2707 2.2566 -8.8607 0.0332 -0.6585 -4.5109 0.0303 -0.2897 2.2241 -5.6169 8.5604 -23.5130 0.3323 -2.0420 -5.2409 0.0876 0.1835 -10.7760 -8.8634 6.6955 -24.7805 0.5072 -2.1973 -4.4571 0.0209 -0.2993 0.3241 3.2911 0.6241 72.0811 16.3472 -5.6596 25.6285 4.9839 23.1505 -8.3973 -4.3467 -10.2220 4.0971 3.9748 -28.9901 -0.2650 -1.3581 3.5294 -3.1229 -3.0700 4.3390 24.4898 2.9385 4.5561 22.5778 0.2931 1.7621 22.3982 0.3402 1.7618 24.7868 1.8505 4.9134 22.8050 0.3579 1.8259 22.6104 0.3463 1.8078 26.9786 1.6415 5.8121 24.2909 0.4139 1.9271 24.1302 0.3930 1.9203 29.2265 1.3860 6.8077 25.8028 0.4585 2.0412 25.6839 0.4760 2.0276 4.7932 7.0833 -3.6225 30.7339 -17.1855 0.0581 -22.6156 -2.1985 16.7905 -3.7614 9.5749 0.3732 -32.0656 -0.0394 1.4565 19.1089 16.3668 -1.8275 -17.5088 -3.4575 13.1139 -0.6778 -3.7097 -3.3041 
98.5129 90.8158 177.6260 82.1771 -3.8407 -4.5152 16.1731 -4.7922 -3.9702 -2.6551 -4.5770 2.7375 -2.3631 -4.1413 3.2435 9.6194 -13.1026 0.0550 -0.0000 0.0000 -0.0000 -7.9680 -13.7150 1.2652 -7.4631 2.3536 3.1947 -54.9323 23.0628 -29.1456 6.3997 1.7867 -23.4686 25.1839 -3.1875 -10.9984 -1.4510 4.6511 15.3927 -2.3092 1.4537 -0.9734 8.1465 -1.8649 5.1843 -0.7952 -2.4142 3.1930 -17.3761 0.1899 -1.0894 -1.6396 0.0172 -0.1565 4.7610 2.2874 1.8358 -8.9154 0.0340 -0.6655 -4.6584 0.0313 -0.3064 1.7017 -5.4517 8.0259 -23.3948 0.3286 -2.0316 -5.5217 0.0898 0.1529 -11.1614 -8.6216 6.1957 -24.7134 0.5043 -2.1924 -4.8324 0.0233 -0.3371 0.7398 3.3114 0.6888 72.3788 19.2402 -6.5132 24.1701 3.8384 24.1863 -7.1313 -4.6834 -13.2744 4.1622 3.9751 -28.9459 -0.2746 -1.3359 3.4383 -3.0897 -3.1415 4.5628 24.3017 2.9184 4.7351 22.2975 0.2846 1.7419 22.1724 0.3335 1.7465 24.5536 1.8723 4.9991 22.7185 0.3551 1.8212 22.4695 0.3411 1.7981 26.8157 1.6845 5.7664 24.1701 0.4111 1.9200 24.1522 0.3929 1.9238 28.9859 1.4060 6.6365 25.5549 0.4497 2.0252 25.8434 0.4809 2.0402 7.4104 7.5377 -3.1869 29.4102 -19.5441 -0.0334 -22.3148 -2.5813 17.3877 -5.3200 9.4983 0.4158 -32.0672 0.8298 1.8734 18.2280 16.8233 -1.7871 -16.6715 -4.1530 12.5142 -0.4841 -1.9058 -2.5700 
102.0752 90.4916 178.4014 84.6350 -3.7466 -4.2164 16.2623 -4.8836 -3.8343 -2.7305 -4.6746 2.6995 -2.4339 -4.2368 3.2183 9.1855 -12.0931 0.2684 -0.0000 0.0000 -0.0000 -8.5506 -12.2443 -0.0814 -7.7380 2.3615 3.1049 -55.6478 22.3730 -28.1011 7.0683 1.0741 -22.4294 23.8165 -3.4435 -10.5846 -1.3392 4.5232 15.5421 -2.3178 1.4268 -1.0819 8.1474 -1.8623 5.1799 -1.2703 -2.2636 2.7140 -17.3514 0.1888 -1.0894 -2.0736 0.0190 -0.2022 4.2841 2.3162 1.3534 -9.0620 0.0353 -0.6828 -4.9266 0.0332 -0.3356 0.9741 -5.2336 7.3748 -23.2939 0.3262 -2.0240 -5.9437 0.0935 0.1072 -11.6923 -8.3114 5.5837 -24.6712 0.5027 -2.1910 -5.3696 0.0274 -0.3942 0.8421 3.3138 0.5684 72.6983 22.1039 -7.2242 21.9853 3.0914 24.9064 -7.4392 -5.2445 -16.1112 4.2659 3.9762 -28.8753 -0.2906 -1.2996 3.2917 -3.0357 -3.2557 4.9199 24.0690 2.8805 4.9600 21.8917 0.2726 1.7119 21.8527 0.3238 1.7237 24.2341 1.9031 5.1089 22.6144 0.3519 1.8146 22.2775 0.3344 1.7844 26.6031 1.7583 5.6990 24.0099 0.4068 1.9100 24.2191 0.3951 1.9296 28.6371 1.4544 6.4002 25.1856 0.4367 2.0004 26.1244 0.4903 2.0607 9.7555 6.8313 -2.6097 28.9570 -21.0101 -0.0919 -21.2790 -2.4153 16.9992 -7.9831 9.0886 1.2928 -30.3052 1.1635 2.5686 16.8970 19.7351 -2.8470 -8.8082 -3.6630 11.3996 -2.8286 -1.0363 -2.2597 
